<svg id="Capa_1" data-name="Capa 1" xmlns="http://www.w3.org/2000/svg" viewBox="0 0 537.83 1400">
  <title>Sin título-1</title>
  <g id="Grupo_60" data-name="Grupo 60">
    <g id="Grupo_2" data-name="Grupo 2">
      <path id="Trazado_1" data-name="Trazado 1" d="M33.18,1084.51c0,100.68,92.21,182.3,206,182.3s206-81.6,206-182.28v0c0-93.3-62.74-179.69-165.55-180.26-20.8-.12-32,11.27-40.43,11.27-9.61,0-26-13.1-42.76-11.2C95.91,915.74,33.18,992.3,33.18,1084.51Z" transform="translate(1.83 0.27)" fill="#ffc31c"/>
      <path id="Trazado_2" data-name="Trazado 2" d="M52.87,1084.61c-.34,91.05,82.78,165.11,185.67,165.41s186.57-73.26,186.92-164.31v-1.1c0-84.39-56.75-162.51-149.74-163-18.81-.1-29,10.18-36.56,10.18-8.69,0-23.55-11.84-38.69-10.12C109.61,932,52.87,1001.22,52.87,1084.61Z" transform="translate(1.83 0.27)" fill="#ffd97b"/>
      <g id="Grupo_1" data-name="Grupo 1">
        <path id="Trazado_3" data-name="Trazado 3" d="M248.78,1077.22c0-.09,23.27-141.72,23.84-141.71,56.7.31,98.65,32.18,120.34,76.24C374.47,1020.18,248.78,1077.22,248.78,1077.22Z" transform="translate(1.83 0.27)" fill="#ffc31c"/>
        <path id="Trazado_4" data-name="Trazado 4" d="M239.16,1075.17c-1.86.27-35.38-139.6-35.38-139.6,13.83-1.57,27.43,9.26,35.38,9.26,5.28,0,11.94-5.43,22.4-8Z" transform="translate(1.83 0.27)" fill="#ffc31c"/>
        <path id="Trazado_5" data-name="Trazado 5" d="M229.18,1077.22S107.77,1024,85.38,1014c20.33-39.52,58.32-68.57,108.91-77.06C194.66,939.09,229.18,1077.22,229.18,1077.22Z" transform="translate(1.83 0.27)" fill="#ffc31c"/>
        <path id="Trazado_6" data-name="Trazado 6" d="M229.18,1084.36,86.42,1151.73a136.35,136.35,0,0,1-17.73-67,155.93,155.93,0,0,1,11.7-60C81.58,1021.89,229.18,1084.36,229.18,1084.36Z" transform="translate(1.83 0.27)" fill="#ffc31c"/>
        <path id="Trazado_7" data-name="Trazado 7" d="M239.17,1096.74l67.77,126.44a191.52,191.52,0,0,1-110.63,7.61Z" transform="translate(1.83 0.27)" fill="#ffc31c"/>
        <path id="Trazado_8" data-name="Trazado 8" d="M229.18,1095c-2.85,5.58-36.57,119.64-43.32,133.07-40.05-11.73-73.78-36.14-94.72-68.55C102.32,1154.76,206.71,1109.1,229.18,1095Z" transform="translate(1.83 0.27)" fill="#ffc31c"/>
        <path id="Trazado_9" data-name="Trazado 9" d="M248.78,1085.52l147.34-67a166.65,166.65,0,0,1,13.52,66.13,135.43,135.43,0,0,1-10.08,51.19Z" transform="translate(1.83 0.27)" fill="#ffc31c"/>
        <path id="Trazado_10" data-name="Trazado 10" d="M248.78,1095s148.1,47,147.26,48.77c-15.67,32.52-43.7,59.17-79.24,75.32Z" transform="translate(1.83 0.27)" fill="#ffc31c"/>
      </g>
      <path id="Trazado_11" data-name="Trazado 11" d="M391.07,1111.74c-13.59,1.22-26.63.09-36.23-9.52-22.49-22.55-30.63-51.08-31.36-80.62-.53-20,.36-41.79-10.62-60.05a47.47,47.47,0,0,0-20.22-18.33,37.31,37.31,0,0,1,7.68-.74c70.87.39,114.13,59.94,114.13,124.26A112.66,112.66,0,0,1,405.8,1110Q398.45,1111.07,391.07,1111.74Z" transform="translate(1.83 0.27)" fill="#fff"/>
      <path id="Trazado_12" data-name="Trazado 12" d="M88.13,952.71c-16,31.38-18.25,69-14.57,102.55,4.2,38.16,18.54,73.63,46.08,103.5,26.25,28.49,62.51,53.69,104.09,61A269.56,269.56,0,0,0,361,1207.38a302.81,302.81,0,0,0,52-25c-61,84.94-188.31,110-284.29,56-59.48-33.47-95.48-91.53-95.44-153.91C33.18,1032.72,53,985.86,88.13,952.71Z" transform="translate(1.83 0.27)" fill="#ffe5bc"/>
    </g>
    <g id="Grupo_4" data-name="Grupo 4">
      <path id="Trazado_13" data-name="Trazado 13" d="M209.24,577.14C159.54,530.79,100.49,518.63,47,526.85A169,169,0,0,0-1.82,541.6v255A235.72,235.72,0,0,0,29.4,808.15c92.59,27.08,173.82-3.74,205.76-89.35C256.64,661.21,250.83,615.94,209.24,577.14Z" transform="translate(1.83 0.27)" fill="#da182d"/>
      <path id="Trazado_14" data-name="Trazado 14" d="M179.31,710.33c-17.1-10.06-21.24-24.23-14.74-41.33,6.94-18.31,17.62-34.34,14.57-54.31-1.58-10.35-6.26-20.89-6.39-31.34,0-.23,0-.46,0-.69a152.68,152.68,0,0,1,26,19.59c31,28.91,35.34,62.66,19.33,105.58a132.25,132.25,0,0,1-6.35,14.34C200.38,719.41,189,716,179.31,710.33Z" transform="translate(1.83 0.27)" fill="#fff"/>
      <path id="Trazado_15" data-name="Trazado 15" d="M-1.82,581.1a123.12,123.12,0,0,1,35.89-28.85c24.67-13.19,56.21-18.39,84.38-21.77,1.69-.2,3.38-.37,5.06-.53A195.38,195.38,0,0,0,47,526.85,169.12,169.12,0,0,0-1.82,541.6Z" transform="translate(1.83 0.27)" fill="#d8b7ca"/>
      <path id="Trazado_16" data-name="Trazado 16" d="M59,778c-18.33-5.86-42.94-17-60.79-30.58v49.25a236.11,236.11,0,0,0,31.21,11.51C102,829.39,167.58,815,207.93,766.58,176.69,777.45,139.05,803.63,59,778Z" transform="translate(1.83 0.27)" fill="#d8b7ca"/>
      <g id="Grupo_3" data-name="Grupo 3">
        <path id="Trazado_17" data-name="Trazado 17" d="M119.8,532.22s17.25-38.66,8.85-68.67c0,0,22.26-3,40.67,18.7,0,0-32.28,40.18-34.38,54Z" transform="translate(1.83 0.27)" fill="#9ab91b"/>
        <path id="Trazado_18" data-name="Trazado 18" d="M128.65,463.54A40.58,40.58,0,0,1,144,465.29s-7.14,27.69-9,37.63c-1.11,5.88-2.8,28.14,0,33a2.33,2.33,0,0,0-.08.36l-15.14-4.06S137.05,493.56,128.65,463.54Z" transform="translate(1.83 0.27)" fill="#d7d59c"/>
        <path id="Trazado_19" data-name="Trazado 19" d="M79.21,524.47c-30.22.12-50.79,30.46-50.79,30.46,9-5.7,45.57-12,45.57-12-9.33,15-4.68,35.21-4.68,35.21,27.05-19.2,49-23.85,49-23.85,19.61,13.68,35.31,46.4,35.31,46.4a161.86,161.86,0,0,0,7.22-33.11c33.38,12.89,43,31,43,31a58.48,58.48,0,0,0-16-39S145.88,524.24,79.21,524.47Z" transform="translate(1.83 0.27)" fill="#9ab91b"/>
        <path id="Trazado_20" data-name="Trazado 20" d="M28.42,554.93S49,524.58,79.21,524.47c.72,0,1.42,0,2.15,0C75,528,67.88,532,64.6,537.89c-.47.86,16.21-1.38,19.94-.06,2.41.85-8.19,23.64-5.49,23.86,6,.5,14.55-3.76,19.43-6.15,7.54-3.69,22.59-10.15,27.13-6.83,7,5.1,21.73,25,22.79,23.52,1.91-2.75,8.11-13.44,8.11-13.44s28.63,14.4,28.65,13.53A42.05,42.05,0,0,1,187.07,559c.45.35.71.57.71.57a58.43,58.43,0,0,1,16,39s-9.61-18.14-43-31a162.53,162.53,0,0,1-7.22,33.11s-15.71-32.72-35.31-46.4c0,0-22,4.66-49,23.85,0,0-4.65-20.23,4.69-35.21C74,542.88,37.39,549.23,28.42,554.93Z" transform="translate(1.83 0.27)" fill="#d7d59c"/>
      </g>
    </g>
    <g id="Grupo_5" data-name="Grupo 5">
      <path id="Trazado_21" data-name="Trazado 21" d="M74.26,926.2C67,888,28.56,872.2-1.82,841.47V1014c1-.2,1.93-.34,2.91-.56C54,1001.58,83.73,976.18,74.26,926.2Z" transform="translate(1.83 0.27)" fill="#462c54"/>
      <path id="Trazado_22" data-name="Trazado 22" d="M74.43,927.29C70.74,936,61.71,943,54,948.71c-15.66,11.55-35.41,17.84-55.79,17.78V1014c1-.2,1.93-.34,2.92-.56C53.6,1001.67,83.27,976.55,74.43,927.29Z" transform="translate(1.83 0.27)" fill="#c7a3b7"/>
    </g>
    <g id="Grupo_7" data-name="Grupo 7">
      <g id="Grupo_6" data-name="Grupo 6">
        <path id="Trazado_23" data-name="Trazado 23" d="M56,1107.92c-17.59-18.92-38.53-24.56-57.78-24.28V1201.9c3.24,7.75,6.62,16,10.14,25,42.92,109.27,37.55,139.59,37.55,139.59C200.88,1395.78,88.51,1142.92,56,1107.92Z" transform="translate(1.83 0.27)" fill="#9c0c20"/>
        <path id="Trazado_24" data-name="Trazado 24" d="M-1.82,1138.29v250.76a47.82,47.82,0,0,0,17.34-2.18C92.61,1363.12,43.14,1259.81-1.82,1138.29Z" transform="translate(1.83 0.27)" fill="#9c0c20"/>
      </g>
      <path id="Trazado_25" data-name="Trazado 25" d="M60.78,1108c-19.84-13.83-42.67-12.08-62.6-5.31v87.46A603.89,603.89,0,0,1,26,1251.82c43.58,110.91,36.86,142.06,36.86,142.06C230.43,1420.46,121.05,1150,60.78,1108Z" transform="translate(1.83 0.27)" fill="#da182d"/>
      <path id="Trazado_26" data-name="Trazado 26" d="M6,1156.29A109.86,109.86,0,0,0-1.83,1140v259.77H58.68C102.59,1359.45,51,1270.59,6,1156.29Z" transform="translate(1.83 0.27)" fill="#c80828"/>
      <path id="Trazado_27" data-name="Trazado 27" d="M46.73,1129.41c-15.4-10.74-33.17-9.16-48.55-3.76v36.48a170.26,170.26,0,0,1,12.73,24.42c4.26,10,7.79,20.17,13.57,29.66,10.61,17.42,27.62,32.7,51.47,31.52,12.65-.62,23.71-5.39,30.54-13.88C92.53,1188.09,66.25,1143,46.73,1129.41Z" transform="translate(1.83 0.27)" fill="#fff"/>
      <path id="Trazado_28" data-name="Trazado 28" d="M151.29,1304.73c-5.22,9.7-8.28,21.29-13.42,29.29-13.48,20.87-43,19.42-66.48,17.65-17.22-1.3-34.85-.51-49.06,9.13a171.51,171.51,0,0,1-24.15,13.87v25.06H58.61a51.42,51.42,0,0,0,5.38-5.68C135.32,1404.87,155.83,1361.28,151.29,1304.73Z" transform="translate(1.83 0.27)" fill="#d8b7ca"/>
    </g>
    <g id="Grupo_38" data-name="Grupo 38">
      <g id="Grupo_11" data-name="Grupo 11">
        <g id="Grupo_8" data-name="Grupo 8">
          <path id="Trazado_29" data-name="Trazado 29" d="M122.73,76.74s-55.24,67.38,23.93,147.49C146.66,224.23,199.51,124.75,122.73,76.74Z" transform="translate(1.83 0.27)" fill="#538822"/>
          <path id="Trazado_30" data-name="Trazado 30" d="M146.51,224.06C67.57,144,122.73,76.74,122.73,76.74c.24.14.45.29.68.43Z" transform="translate(1.83 0.27)" fill="#9ab91b"/>
        </g>
        <g id="Grupo_9" data-name="Grupo 9">
          <path id="Trazado_31" data-name="Trazado 31" d="M29.77,116.9s-.37,83.26,116.77,107.31C146.54,224.21,123.75,116.15,29.77,116.9Z" transform="translate(1.83 0.27)" fill="#538822"/>
          <path id="Trazado_32" data-name="Trazado 32" d="M146.28,224.16C29.41,200,29.78,116.9,29.78,116.9h.81Z" transform="translate(1.83 0.27)" fill="#9ab91b"/>
        </g>
        <g id="Grupo_10" data-name="Grupo 10">
          <path id="Trazado_33" data-name="Trazado 33" d="M226.44,92.65s26.05,80-79.21,131.47C147.23,224.12,135.8,114.66,226.44,92.65Z" transform="translate(1.83 0.27)" fill="#538822"/>
          <path id="Trazado_34" data-name="Trazado 34" d="M147.46,224c105-51.47,79-131.36,79-131.36-.27.06-.53.14-.79.21Z" transform="translate(1.83 0.27)" fill="#9ab91b"/>
        </g>
      </g>
      <path id="Trazado_35" data-name="Trazado 35" d="M82.27,319.5C93.89,393.33,167.32,554.37,197,550.7s51.73-177.28,40.11-251.11S181.81,184.18,142.49,189C90.75,195.41,70.66,245.67,82.27,319.5Z" transform="translate(1.83 0.27)" fill="#ed6d2b"/>
      <path id="Trazado_36" data-name="Trazado 36" d="M142.49,189a51.68,51.68,0,0,1,13.61.16c-22,8.3-36.33,25.48-43.7,45.81-4.67,12.92-23.12,96.59,47,245.14,7.39,15.66,30.46,26.13,49.11,14,9.06-5.92,14.28-14.46,18.53-23.52,1.27-2.72,2.56-5.42,3.84-8.11-7.86,48-20,86.47-33.84,88.17C167.33,554.37,93.89,393.33,82.28,319.5S90.75,195.41,142.49,189Z" transform="translate(1.83 0.27)" fill="#fec187"/>
      <g id="Grupo_13" data-name="Grupo 13">
        <g id="Grupo_12" data-name="Grupo 12">
          <path id="Trazado_37" data-name="Trazado 37" d="M219.82,244A51.82,51.82,0,0,1,208,248.51a93.79,93.79,0,0,1-12.15,2.36,97.23,97.23,0,0,1-12.42.65A54.59,54.59,0,0,1,170.69,250l-.07-.45,24.53-3.26,24.61-2.8Z" transform="translate(1.83 0.27)" fill="#e33f00"/>
        </g>
      </g>
      <g id="Grupo_15" data-name="Grupo 15">
        <g id="Grupo_14" data-name="Grupo 14">
          <path id="Trazado_38" data-name="Trazado 38" d="M195.53,280.53a54.7,54.7,0,0,1-12.14,4.57,96.66,96.66,0,0,1-12.47,2.4,100.6,100.6,0,0,1-12.75.7,58,58,0,0,1-13.09-1.44l-.07-.46L170.2,283l25.25-2.88Z" transform="translate(1.83 0.27)" fill="#e33f00"/>
        </g>
      </g>
      <g id="Grupo_17" data-name="Grupo 17">
        <g id="Grupo_16" data-name="Grupo 16">
          <path id="Trazado_39" data-name="Trazado 39" d="M124.14,261.56a43.86,43.86,0,0,1-10.77,4.4,77.35,77.35,0,0,1-11.12,2.23,78.65,78.65,0,0,1-11.38.53,46.73,46.73,0,0,1-11.73-1.61l-.07-.45,22.47-3,22.53-2.55Z" transform="translate(1.83 0.27)" fill="#e33f00"/>
        </g>
      </g>
      <g id="Grupo_19" data-name="Grupo 19">
        <g id="Grupo_18" data-name="Grupo 18">
          <path id="Trazado_40" data-name="Trazado 40" d="M138.37,304.94a69.33,69.33,0,0,1-13.85,4.78,125,125,0,0,1-14.18,2.61,129.19,129.19,0,0,1-14.46.92A73.26,73.26,0,0,1,81.09,312l-.07-.45,28.6-3.76,28.68-3.29Z" transform="translate(1.83 0.27)" fill="#e33f00"/>
        </g>
      </g>
      <g id="Grupo_21" data-name="Grupo 21">
        <g id="Grupo_20" data-name="Grupo 20">
          <path id="Trazado_41" data-name="Trazado 41" d="M236.93,298.18a50.69,50.69,0,0,1-11.67,4.51,91.68,91.68,0,0,1-12,2.35,95.11,95.11,0,0,1-12.29.64,54,54,0,0,1-12.62-1.51l-.07-.45,24.25-3.22,24.33-2.77Z" transform="translate(1.83 0.27)" fill="#e33f00"/>
        </g>
      </g>
      <g id="Grupo_23" data-name="Grupo 23">
        <g id="Grupo_22" data-name="Grupo 22">
          <path id="Trazado_42" data-name="Trazado 42" d="M170.94,340.27a72,72,0,0,1-14.18,4.81,130.73,130.73,0,0,1-14.5,2.66,135,135,0,0,1-14.77.94,75.65,75.65,0,0,1-15.11-1.19l-.07-.45,29.24-3.84,29.31-3.39Z" transform="translate(1.83 0.27)" fill="#e33f00"/>
        </g>
      </g>
      <g id="Grupo_25" data-name="Grupo 25">
        <g id="Grupo_24" data-name="Grupo 24">
          <path id="Trazado_43" data-name="Trazado 43" d="M240.27,358.69a62.63,62.63,0,0,1-13.14,4.69,113.47,113.47,0,0,1-13.5,2.53,116.79,116.79,0,0,1-13.75.82,65.85,65.85,0,0,1-14.09-1.32l-.07-.45,27.2-3.59,27.28-3.14Z" transform="translate(1.83 0.27)" fill="#e33f00"/>
        </g>
      </g>
      <g id="Grupo_27" data-name="Grupo 27">
        <g id="Grupo_26" data-name="Grupo 26">
          <path id="Trazado_44" data-name="Trazado 44" d="M184.14,385.5A51.82,51.82,0,0,1,172.33,390a90.37,90.37,0,0,1-12.16,2.36,95.2,95.2,0,0,1-12.41.66A54.61,54.61,0,0,1,135,391.57l-.07-.46,24.53-3.25,24.63-2.81Z" transform="translate(1.83 0.27)" fill="#e33f00"/>
        </g>
      </g>
      <g id="Grupo_29" data-name="Grupo 29">
        <g id="Grupo_28" data-name="Grupo 28">
          <path id="Trazado_45" data-name="Trazado 45" d="M173.36,412.88A74.21,74.21,0,0,1,159,417.72a130.91,130.91,0,0,1-29.76,3.67,78.82,78.82,0,0,1-15.35-1.17l-.07-.45,29.72-3.91,29.8-3.44Z" transform="translate(1.83 0.27)" fill="#e33f00"/>
        </g>
      </g>
      <g id="Grupo_31" data-name="Grupo 31">
        <g id="Grupo_30" data-name="Grupo 30">
          <path id="Trazado_46" data-name="Trazado 46" d="M181.61,434.25a60.9,60.9,0,0,1,12.86-4.65,107,107,0,0,1,13.22-2.49,110.21,110.21,0,0,1,13.48-.79A63.87,63.87,0,0,1,235,427.67l.07.45-26.65,3.52-26.72,3.06Z" transform="translate(1.83 0.27)" fill="#e33f00"/>
        </g>
      </g>
      <g id="Grupo_33" data-name="Grupo 33">
        <g id="Grupo_32" data-name="Grupo 32">
          <path id="Trazado_47" data-name="Trazado 47" d="M202.51,457.89a47.26,47.26,0,0,1-11.18,4.44,82.51,82.51,0,0,1-11.51,2.28,85.76,85.76,0,0,1-11.78.58,50.34,50.34,0,0,1-12.12-1.56l-.07-.46,23.25-3.1,23.34-2.64Z" transform="translate(1.83 0.27)" fill="#e33f00"/>
        </g>
      </g>
      <g id="Grupo_35" data-name="Grupo 35">
        <g id="Grupo_34" data-name="Grupo 34">
          <path id="Trazado_48" data-name="Trazado 48" d="M182.07,486.17a43.61,43.61,0,0,1,10.66-4.39A73.59,73.59,0,0,1,215,479.05a45.89,45.89,0,0,1,11.62,1.62l.06.46-22.23,3-22.32,2.52Z" transform="translate(1.83 0.27)" fill="#e33f00"/>
        </g>
      </g>
      <g id="Grupo_37" data-name="Grupo 37">
        <g id="Grupo_36" data-name="Grupo 36">
          <path id="Trazado_49" data-name="Trazado 49" d="M197.35,517.16a24.55,24.55,0,0,1-7.54,4,40,40,0,0,1-7.9,1.84,42,42,0,0,1-8.16.13,26.57,26.57,0,0,1-8.48-2l-.07-.45,16-2.19,16.08-1.76Z" transform="translate(1.83 0.27)" fill="#e33f00"/>
        </g>
      </g>
      <path id="Trazado_50" data-name="Trazado 50" d="M207.07,352c-15.2-15.87-12.93-37.3-15.81-56.7-2.62-17.56-1.91-39.28-14.23-54.29-7.52-9.15-19.45-18.29-32.73-18.56a47.44,47.44,0,0,1,17.88-5.74c26.63-3.28,56.24,24.87,64.11,74.86C229,308.79,229,334,227,359.69,219.37,358.94,211.75,356.92,207.07,352Z" transform="translate(1.83 0.27)" fill="#fff"/>
    </g>
    <g id="Grupo_39" data-name="Grupo 39">
      <path id="Trazado_51" data-name="Trazado 51" d="M57.42,341.83c-19.35-40.07-38.71-62.94-59.24-80.17V481.12C58,449.78,86.17,401.34,57.42,341.83Z" transform="translate(1.83 0.27)" fill="#538822"/>
      <path id="Trazado_52" data-name="Trazado 52" d="M30.89,341.89C20,319.24,9.15,302.76-1.82,289.74V454.83C37.77,428.1,53.78,389.28,30.89,341.89Z" transform="translate(1.83 0.27)" fill="#9ab91b"/>
      <path id="Trazado_53" data-name="Trazado 53" d="M57.42,341.83S45.9,370,32.55,396.73c-8.85,17.73-19.2,31.92-34.38,44.53v39.86C58,449.78,86.17,401.34,57.42,341.83Z" transform="translate(1.83 0.27)" fill="#d7d59c"/>
    </g>
    <g id="Grupo_40" data-name="Grupo 40">
      <path id="Trazado_54" data-name="Trazado 54" d="M349.77,831.25c-25-40.59-85.22-39.5-159.14-3.81C133.1,855.21,33,932.64-1.82,976.6v33c45,8.13,202.66-29.29,268.17-60.91C340.25,913,368.77,862.12,349.77,831.25Z" transform="translate(1.83 0.27)" fill="#e8561d"/>
      <path id="Trazado_55" data-name="Trazado 55" d="M319.84,806.39a60.09,60.09,0,0,1,29.92,24.86c5.51,9,7,19.63,4.55,31.1,0,0-5.63-3.76-20.28-27.53C320.73,813.19,319.84,806.39,319.84,806.39Z" transform="translate(1.83 0.27)" fill="#9ab91b"/>
      <path id="Trazado_56" data-name="Trazado 56" d="M196.34,842.86c-66.41,32.06-199,133-187.92,151s179.88-25.64,246.29-57.7S349,862,334.38,838.27C315.16,807,262.76,810.8,196.34,842.86Z" transform="translate(1.83 0.27)" fill="#f38b4e"/>
      <path id="Trazado_57" data-name="Trazado 57" d="M212.46,869C146,901.08,3.66,986.11,8.55,994S172.18,942,238.6,910,340.5,848.18,334,837.7C325.55,823.92,278.87,837,212.46,869Z" transform="translate(1.83 0.27)" fill="#ed6d2b"/>
      <path id="Trazado_58" data-name="Trazado 58" d="M349.77,831.25c-25-40.59-85.22-39.5-159.14-3.81C133.1,855.21,33,932.64-1.82,976.6v33c17.84,3.22,53.32-.69,93.76-8.58L82,1000.7c-11.07-.31-21.93-1.63-31.39-7.06-19.38-11.15-2.69-33.46,11.25-45.11,132.24-110.52,213.4-125.29,228.7-126,24.09-1.07,47.3,4.73,63.83,20A38.41,38.41,0,0,0,349.77,831.25Z" transform="translate(1.83 0.27)" fill="#ffdfb9"/>
      <path id="Trazado_59" data-name="Trazado 59" d="M188.55,929.66c12.24-16.85,35.32-23.12,54.81-32.38,17.62-8.39,40.55-15.9,52.7-30.34,7.43-8.82,13.55-20.82,10-30.5a31.27,31.27,0,0,1,11.15,10.78c11.09,18-9.86,49.81-59.91,74-17.2,8.3-43.54,17.61-71,25.7C184.87,941.1,184.78,934.84,188.55,929.66Z" transform="translate(1.83 0.27)" fill="#fff"/>
    </g>
    <g id="Grupo_46" data-name="Grupo 46">
      <path id="Trazado_63" data-name="Trazado 63" d="M66.14,370.85a105.59,105.59,0,0,0-68,7.11v72.35c3.7,1.65,7.6,3.24,11.67,4.72-1.77,13.14-5.28,33.1-11.67,48.76V532.5c17.21,7,47.51,11.56,48.07,2.62,1-15.8,12.47-49.32,19.11-67.69,26.94,2.53,50.5-.82,56.92-13.16C136.36,427.18,109.1,380.84,66.14,370.85Z" transform="translate(1.83 0.27)" fill="#ffdca0"/>
      <path id="Trazado_64" data-name="Trazado 64" d="M37.38,531c-6.21-.93-12.32-2.67-16.68-6.84-7.16-6.85-2-18.67.3-26.24,4.24-14.12,13.34-34.49-.71-46.36-6-5.13-14.62-7.44-22.11-10.93v9.71C1.88,452,5.77,453.55,9.84,455c-1.76,13.14-5.28,33.1-11.66,48.76V532.5c17.2,7,47.5,11.56,48.07,2.62.09-1.36.27-2.9.51-4.5A30.43,30.43,0,0,1,37.38,531Z" transform="translate(1.83 0.27)" fill="#f0eee7"/>
      <path id="Trazado_65" data-name="Trazado 65" d="M66.14,370.85a105.59,105.59,0,0,0-68,7.11v13.46a63.68,63.68,0,0,1,19.51-9.85,117,117,0,0,1,47.83-4.41c9.85,1.27,19.54,4.71,28.8,7.79.86.29,1.75.55,2.61.81A79.53,79.53,0,0,0,66.14,370.85Z" transform="translate(1.83 0.27)" fill="#f0eee7"/>
      <path id="Trazado_66" data-name="Trazado 66" d="M58.59,446.94s-4.29-44.76,6-45.64c10-.86,40.71,11.69,35.05,38.34C97.73,448.44,87,458.5,58.59,446.94Z" transform="translate(1.83 0.27)" fill="#feb55d"/>
      <path id="Trazado_67" data-name="Trazado 67" d="M44.48,396.63c-1.91-3.41-31.86-6.51-46.3,9.31v25.48C3.12,435.1,11.32,438,24.36,439,24.36,439,48.66,404.08,44.48,396.63Z" transform="translate(1.83 0.27)" fill="#feb55d"/>
      <path id="Trazado_68" data-name="Trazado 68" d="M86.94,421.54a49.34,49.34,0,0,0-12.57-13.11c-4.41-3.56-10.53-8.34-11.14-14.05-.65-6,3.39-8.65,8.85-9.77a76.05,76.05,0,0,1,7.76,2.78c25.85,10.94,42.31,36,33.45,56.4C99.61,439.64,93.24,432.26,86.94,421.54Z" transform="translate(1.83 0.27)" fill="#fff"/>
    </g>
    <g id="Grupo_52" data-name="Grupo 52">
      <g id="Grupo_51" data-name="Grupo 51">
        <path id="Trazado_71" data-name="Trazado 71" d="M472.68,206.42s8.66-49.7,27.79-67.12c0,0-8.6-9.29-30.8-1,0,0-4.31,55.43-9.09,65.58Z" transform="translate(1.83 0.27)" fill="#9ab91b"/>
        <path id="Trazado_72" data-name="Trazado 72" d="M500.47,139.3a18,18,0,0,0-11.22-4.21s-9.2,33.85-15.84,49.3c-8.05,18.75-12.8,19.4-12.83,19.48l12.11,2.55S481.34,156.72,500.47,139.3Z" transform="translate(1.83 0.27)" fill="#d7d59c"/>
      </g>
      <path id="Trazado_73" data-name="Trazado 73" d="M490.86,216.79c-4.05-11.95-14.63-29.27-46.42-14.59s-24.08,77.77-23,118.19c1,39.16-37.61,111.36-30.76,120.07,4.95,6.28,69.15-20.63,88.09-119.5C484.14,292.79,503.17,253.06,490.86,216.79Z" transform="translate(1.83 0.27)" fill="#da182d"/>
      <path id="Trazado_74" data-name="Trazado 74" d="M452.29,239.51c.33,14.53-8.63,30.22-21.81,40.64-1.11-25.51-2.11-56.76,15.66-65a43.25,43.25,0,0,1,8.69-3.05C450.35,219.61,452.12,232.29,452.29,239.51Z" transform="translate(1.83 0.27)" fill="#fff"/>
      <path id="Trazado_75" data-name="Trazado 75" d="M427.1,395.67c15-21.85,28.44-46,34.67-71.13,3.19-12.88,5.09-25.93,7.05-39a256.89,256.89,0,0,0,3.67-38.22,117.2,117.2,0,0,0-4.79-35.83A63.11,63.11,0,0,0,460.63,197c19.45-3,27,10.14,30.23,19.77,12.31,36.27-6.72,76-12.11,104.18-18.94,98.86-83.14,125.78-88.09,119.49a7.16,7.16,0,0,1-.72-4.86C406.1,425.93,417.06,410.27,427.1,395.67Z" transform="translate(1.83 0.27)" fill="#d8b7ca"/>
    </g>
    <g id="Grupo_54" data-name="Grupo 54">
      <path id="Trazado_76" data-name="Trazado 76" d="M130.83-.26H-1.82V222.06c88.45-9,146.6-62.37,146.6-149.47C144.77,44.51,140.41,20.32,130.83-.26Z" transform="translate(1.83 0.27)" fill="#da182d"/>
      <g id="Grupo_53" data-name="Grupo 53">
        <path id="Trazado_77" data-name="Trazado 77" d="M33.9,18C31.73,14.62,3,19.62,9.68,30.2,16.1,40.31,36.81,22.62,33.9,18Z" transform="translate(1.83 0.27)" fill="#ffc31c"/>
        <path id="Trazado_78" data-name="Trazado 78" d="M34.14,117.38c2.09-3.44-18.08-22.28-24.57-11.58C3.36,116,31.33,122,34.14,117.38Z" transform="translate(1.83 0.27)" fill="#ffc31c"/>
        <path id="Trazado_79" data-name="Trazado 79" d="M46,82c.8-3.84-25-16.21-27.41-4.26C16.29,89.18,45,87.23,46,82Z" transform="translate(1.83 0.27)" fill="#ffc31c"/>
        <path id="Trazado_80" data-name="Trazado 80" d="M44.07,49.44c-.8-3.85-29.85-7.36-27.37,4.58C19.07,65.42,45.15,54.63,44.07,49.44Z" transform="translate(1.83 0.27)" fill="#ffc31c"/>
      </g>
      <path id="Trazado_81" data-name="Trazado 81" d="M-1.82,34.9v68.46A48.75,48.75,0,0,0,11.61,69.13,48.75,48.75,0,0,0-1.82,34.9Z" transform="translate(1.83 0.27)" fill="#ffdca0"/>
      <path id="Trazado_82" data-name="Trazado 82" d="M111.27-.26H70.71C87.65,17.66,95,41.37,95,71.62c0,58.7-38.25,95.21-96.81,102.77v28c77.14-7.88,127.88-55.3,127.88-132.72C126.06,42.28,121.43,19.11,111.27-.26Z" transform="translate(1.83 0.27)" fill="#ffdca0"/>
      <path id="Trazado_83" data-name="Trazado 83" d="M-1.82,184.82v37.65c67.3-6.9,117-39.52,136.87-93.19C108.58,148.78,81.44,184.42-1.82,184.82Z" transform="translate(1.83 0.27)" fill="#dfd4d5"/>
      <path id="Trazado_84" data-name="Trazado 84" d="M47.61-.26H98.89c12.06,17.74,17.42,39.8,17.42,66.64a135.36,135.36,0,0,1-1,16.34c-12.48.57-25.22.53-37.16-2.37C57.11,75.24,47.6,62.17,47.72,43,47.81,28.09,50.31,13.81,47.61-.26Z" transform="translate(1.83 0.27)" fill="#fff"/>
    </g>
    <g id="Grupo_55" data-name="Grupo 55">
      <path id="Trazado_85" data-name="Trazado 85" d="M217.9,817.26c20.52,64.47,67.86,45.22,55.65,34.72-22.2-19.07-17.07-41.69-17.07-41.69,59.6,51.81,96.5-.18,77.2-7.91-54.5-21.81-36.86-38.51-36.86-38.51,5.92,1.38,13.05,17.48,49.46,7.21s29.78-34.27,19-34.38c-51.81-.53-59.26-20.91-47-28.62s41.33-31.9,29.61-44.55-8.11-24.51-10.67-32.72c-3.59-9.71-15.4-15-26.38-11.83l-.17,0c-11,2.89-23,15.6-41.47,15.19s-16.3,32.57-15.63,45.87-22.06,20.62-54.37-15.25c-6.74-7.47-32.18,2.64-19,34.37S212.14,726,217,729.33c0,0-4.05,22.58-57-2.09-18.74-8.75-42.4,49,40.37,58.78,0,0-17,17.48-47.64,13.69-16.85-2.09-4.93,42.82,65.14,17.54" transform="translate(1.83 0.27)" fill="#538822"/>
      <path id="Trazado_86" data-name="Trazado 86" d="M325.37,746.88c4.16,4-12.93,7.83-18.62,8.1-7.79.37-18.51-4.92-23.64-10.43-5.56-6-4.7-16.59-1.82-24.28,6.41-17.14,14.36-29.67,21.57-42.72,4.86-8.8,11.34-21.09,20.52-26.22a30.77,30.77,0,0,0,7.37,17.13c10.44,12.27-17.95,37.49-29.82,45.63C290.28,721.4,306.1,728.29,325.37,746.88Z" transform="translate(1.83 0.27)" fill="#fff" opacity="0.5" style="isolation: isolate"/>
      <line id="Línea_1" data-name="Línea 1" x1="170.89" y1="906" x2="311.1" y2="652.02" fill="none" stroke="#9ab91b" stroke-miterlimit="10" stroke-width="1.09"/>
      <path id="Trazado_87" data-name="Trazado 87" d="M160,727.24c52.92,24.67,57,2.1,57,2.1-4.87-3.3-23.62,1.6-36.82-30.13s12.24-41.85,19-34.38c32.31,35.87,55.05,28.56,54.37,15.25s-2.83-46.28,15.64-45.87,30.5-12.29,41.47-15.18a23.18,23.18,0,0,1,18.59,2.36c-1.18.55-2.34,1.13-3.46,1.74a142.93,142.93,0,0,0-33.32,23.78c-23.57,23.31-38.87,51.28-54.23,79.15-7.39,13.39-15.69,27.59-15.51,42.9.21,13.65,4,27.88,8.33,40.95,5.68,17.07,20.36,35,40.26,40.05.72.67,1.45,1.35,2.25,2,12.2,10.5-35.13,29.75-55.65-34.72-70.07,25.27-82-19.63-65.14-17.54C183.4,803.51,200.41,786,200.41,786,117.64,776.24,141.29,718.5,160,727.24Z" transform="translate(1.83 0.27)" fill="#d7d59c"/>
    </g>
    <g id="Grupo_56" data-name="Grupo 56">
      <path id="Trazado_88" data-name="Trazado 88" d="M425-.26a217.84,217.84,0,0,1,2.56,34.49c0,95.78-70.3,150.83-173.91,150.83S80.6,129.53,80.6,33.75a196.94,196.94,0,0,1,2.81-34Z" transform="translate(1.83 0.27)" fill="#da182d"/>
      <path id="Trazado_89" data-name="Trazado 89" d="M403.82-.26a158,158,0,0,1,2.43,28.45,131.41,131.41,0,0,1-1,16.34c-12.47.57-25.2.53-37.15-2.37-21-5.1-30.53-18.17-30.42-37.33,0-1.71.07-3.4.12-5.1Z" transform="translate(1.83 0.27)" fill="#fff"/>
      <path id="Trazado_90" data-name="Trazado 90" d="M128.66-.26C126,20.09,125.8,41.38,132.14,60.9c7.34,23.67,22.71,44.77,44,60.45,22.72,16.48,67.36,23.82,96,24.54,90.43,2.25,118.54-35.26,146-55.45-22.47,60.77-83.21,94.62-164.43,94.62-103.61,0-173.09-55.52-173.09-151.3a197.14,197.14,0,0,1,2.81-34Z" transform="translate(1.83 0.27)" fill="#d8b7ca"/>
    </g>
    <g id="Grupo_57" data-name="Grupo 57">
      <path id="Trazado_91" data-name="Trazado 91" d="M359.55,1399.73H91.15c-34.87-35.74-49.64-83.5-40.22-130,8.93-44.25,32.37-83.79,77.94-102,43.65-17.47,71.56,17.67,110,23.74,31.53,5,52.56-26.84,111.7,9.64,49.27,30.4,60.78,66.47,49.2,123.83C394.21,1352.61,380.32,1378.45,359.55,1399.73Z" transform="translate(1.83 0.27)" fill="#da182d"/>
      <path id="Trazado_92" data-name="Trazado 92" d="M336.82,1399.73H113.18C75.54,1367,58.59,1320,67.9,1274.07c8-39.86,29.16-75.48,70.21-91.92,39.32-15.74,64.47,15.92,99.08,21.39,28.41,4.5,47.34-24.18,100.63,8.69,44.39,27.38,54.75,59.88,44.32,111.55C376.36,1352.66,360.51,1379.22,336.82,1399.73Z" transform="translate(1.83 0.27)" fill="#ffdca0"/>
      <path id="Trazado_93" data-name="Trazado 93" d="M327.49,1358.11a34.59,34.59,0,0,1-15-21,76.79,76.79,0,0,1-.3-24.58c1.5-13.54,3.93-27.18,3.27-40.83-.5-10.3-3-20.76-10.31-29.07a65.75,65.75,0,0,0-24.36-16.34c12.91-3.38,27.72-6.55,53,9,32.74,20.2,40.39,44.17,32.7,82.29a98.76,98.76,0,0,1-24.4,47.27A52.46,52.46,0,0,1,327.49,1358.11Z" transform="translate(1.83 0.27)" fill="#fff"/>
      <path id="Trazado_94" data-name="Trazado 94" d="M227.82,1265.29s81.53,55.32,44.25,91.56c-23.4,22.75-51.16,1.32-55-19.11Z" transform="translate(1.83 0.27)" fill="#fcb57c"/>
      <path id="Trazado_95" data-name="Trazado 95" d="M221,1263s-96.78,30.48-73.88,75.1c14.38,28,48.25,15.18,59-3.23Z" transform="translate(1.83 0.27)" fill="#fcb57c"/>
      <path id="Trazado_96" data-name="Trazado 96" d="M233,1302.51c-7.2,2.58-3.71,48.14,18.62,40.1C273,1334.93,242.7,1299,233,1302.51Z" transform="translate(1.83 0.27)" fill="#552c0e"/>
      <path id="Trazado_97" data-name="Trazado 97" d="M202.42,1297.67c5.72,4.64-15.34,46.3-33.15,31.91C152.24,1315.84,194.68,1291.43,202.42,1297.67Z" transform="translate(1.83 0.27)" fill="#552c0e"/>
      <path id="Trazado_98" data-name="Trazado 98" d="M189.66,1399.73c12.81-45,30.62-120.81,34.46-204.74.09-2.35,28.35,1.77,26.71,5.21-19.83,41.91-33,140.29-39.52,199.52Z" transform="translate(1.83 0.27)" fill="#da182d"/>
      <path id="Trazado_99" data-name="Trazado 99" d="M109.74,1317.31c5.59,39.38,28.27,65.39,56.87,82.42H91.15c-34.87-35.74-49.64-83.5-40.22-130,8.93-44.25,32.37-83.79,77.94-102,23.93-9.58,43.13-3.35,61.91,5.24-3.36,1.64-6.68,3.35-9.86,5.24C158,1191.77,98.86,1240.82,109.74,1317.31Z" transform="translate(1.83 0.27)" fill="#f1e8e1"/>
    </g>
    <g id="Grupo_58" data-name="Grupo 58">
      <path id="Trazado_100" data-name="Trazado 100" d="M437.48,639.3h-5.12V622.67L424,609l2.56-1.13,8,10.19,6.19-9.63,3.52,1.55-6.73,12.82Z" transform="translate(1.83 0.27)" fill="#538822"/>
      <path id="Trazado_101" data-name="Trazado 101" d="M434.47,612.59c-3.15,1.27-13.87,3.33-17.39-9.86-1.65-6.21-7.06-8.6-12-10-6.74-1.91-15.38-26-5.59-28.76,10.22-2.91,17.75,4.59,26.25,13.61,4.33,4.59,12.27,5.74,12.63,13.13C438.87,600.87,448.77,606.83,434.47,612.59Z" transform="translate(1.83 0.27)" fill="#9ab91b"/>
      <path id="Trazado_102" data-name="Trazado 102" d="M428.75,588.16c-5.9-.39-11.8-1.37-15.59-5.86-2.14-2.51-2.28-5.07-3.35-7.45-1.18-2.59-2.88-7-1.69-7.91.92-.72,9.42,5.73,14.46,11.09,3.44,3.65,9.73,4.58,10.06,10.4C431.31,588.4,430,588.25,428.75,588.16Z" transform="translate(1.83 0.27)" fill="#dddddc"/>
      <path id="Trazado_103" data-name="Trazado 103" d="M412.92,589.53a62,62,0,0,1-4.22-7.08,71.15,71.15,0,0,1-3.87-7.77,18.11,18.11,0,0,1-1.53-11.34,16.23,16.23,0,0,0-3.8.63c-9.79,2.79-1.14,26.85,5.59,28.76,4.93,1.4,10.34,3.79,12,10,3.5,13.19,14.23,11.14,17.38,9.87,5.46-2.2,7.39-4.42,7.66-6.9C430.26,604.18,419.65,598.31,412.92,589.53Z" transform="translate(1.83 0.27)" fill="#e3da98"/>
      <path id="Trazado_104" data-name="Trazado 104" d="M443.72,613.23c3.74,0,15.3-2.35,11.94-16.7-1.59-6.75,2.49-11.28,6.63-14.65,5.61-4.58,1.67-31.68-9.35-30.45-11.52,1.28-15,11.67-18.72,24-1.86,6.25-9.07,10.58-5.61,18C433.35,603.52,426.74,613.36,443.72,613.23Z" transform="translate(1.83 0.27)" fill="#9ab91b"/>
      <path id="Trazado_105" data-name="Trazado 105" d="M449.05,562.63a18.16,18.16,0,0,1,.77,6.63,14.71,14.71,0,0,1-1.8,6.45,6,6,0,0,1-2.25,2.61c-.9.49-1.85.85-2.75,1.34-3.83,2.09-6.13,8.29-10.2,7.61-2.34-.38,2.44-6.75,3.57-10.73,2.25-7.93,5-19.36,9.49-18.55C447.88,558.36,448.35,560.69,449.05,562.63Z" transform="translate(1.83 0.27)" fill="#dddddc"/>
      <path id="Trazado_106" data-name="Trazado 106" d="M452.94,581.91a58.22,58.22,0,0,0,.5-8.65,74.05,74.05,0,0,0-.21-9.18c-.44-4.06-1.41-8.54-4.34-11.73a17.2,17.2,0,0,1,4-.91c11-1.22,15,25.86,9.35,30.45-4.12,3.37-8.2,7.9-6.62,14.65,3.35,14.34-8.21,16.66-11.95,16.69-6.48,0-9.52-1.35-11.07-3.66C443.5,603.29,450.87,593.25,452.94,581.91Z" transform="translate(1.83 0.27)" fill="#e3da98"/>
    </g>
    <g id="Grupo_59" data-name="Grupo 59">
      <path id="Trazado_107" data-name="Trazado 107" d="M444.56,1399.73l1-2.12-2.66-25.28,4.64-.25,4.65,19.8L468.44,1381l4.14,4.31-18.16,14.47Z" transform="translate(1.83 0.27)" fill="#538822"/>
      <path id="Trazado_108" data-name="Trazado 108" d="M456,1383.69c-5.62.13-23.18-2.85-18.91-24.58,2-10.24-4.4-16.88-10.8-21.76-8.69-6.66-4.31-47.59,12.34-46.25,17.42,1.41,23.29,16.9,29.52,35.22,3.18,9.31,14.26,15.52,9.48,26.79C471,1368.62,481.56,1383.13,456,1383.69Z" transform="translate(1.83 0.27)" fill="#9ab91b"/>
      <path id="Trazado_109" data-name="Trazado 109" d="M465,1343.85c-8.55-3.91-16.66-8.71-19.15-17.58-1.38-5,.25-8.88.35-13,.11-4.54.72-12.07,3.19-12.81,1.88-.55,10,13.92,13.67,24.8,2.53,7.4,11.28,12.33,7.59,21.25C468.71,1345.67,466.83,1344.69,465,1343.85Z" transform="translate(1.83 0.27)" fill="#dddddc"/>
      <path id="Trazado_110" data-name="Trazado 110" d="M440.33,1337a95.83,95.83,0,0,1-1.24-13,108.18,108.18,0,0,1-.19-13.83c.43-6.13,1.63-12.92,5.87-17.85a26.51,26.51,0,0,0-6.14-1.21c-16.66-1.34-21,39.59-12.35,46.25,6.41,4.88,12.8,11.52,10.8,21.76-4.26,21.73,13.29,24.71,18.92,24.58,9.74-.22,14.23-2.46,16.44-6C455.91,1369.46,443.6,1352.76,440.33,1337Z" transform="translate(1.83 0.27)" fill="#e3da98"/>
      <path id="Trazado_111" data-name="Trazado 111" d="M469.4,1389.86c5.61,2.08,24.61,5.13,29.92-18.26,2.49-11,11.85-15.49,20.46-18.21,11.72-3.71,25.34-46.52,7.93-50.91-18.18-4.6-30.94,9-45.29,25.32-7.3,8.3-21.2,10.72-21.35,23.75C460.86,1369.47,443.85,1380.46,469.4,1389.86Z" transform="translate(1.83 0.27)" fill="#9ab91b"/>
      <path id="Trazado_112" data-name="Trazado 112" d="M513.82,1317.08a30.39,30.39,0,0,1-3.61,10.37,27,27,0,0,1-7.35,8.65,10.94,10.94,0,0,1-5.26,2.63c-1.68.23-3.38.24-5.07.47-7.24,1-15.16,9-20.76,5.65-3.22-1.9,8.52-8.75,13.07-14.08,9.07-10.62,21.46-26.16,27.58-22.43C515.14,1310,514.16,1313.76,513.82,1317.08Z" transform="translate(1.83 0.27)" fill="#dddddc"/>
      <path id="Trazado_113" data-name="Trazado 113" d="M505.77,1348.16a102.51,102.51,0,0,0,7-12.68,123.19,123.19,0,0,0,6.29-13.87c2.28-6.33,4.05-13.59,2-20a28.55,28.55,0,0,1,6.72.9c17.41,4.4,3.79,47.2-7.93,50.91-8.61,2.72-18,7.2-20.46,18.22C494,1395,475,1391.93,469.4,1389.87c-9.74-3.58-13.28-7.41-13.95-11.75C475.75,1375.55,495.54,1363,505.77,1348.16Z" transform="translate(1.83 0.27)" fill="#e3da98"/>
    </g>
  </g>
</svg>
